<svg xmlns="http://www.w3.org/2000/svg" viewBox="0 0 32 32" width="24" height="24" style="border-color: rgba(0,0,0,0);border-width: bpx;border-style: undefined" filter="none">
    <path d="M5.333 5.333v21.333h21.333v-21.333h-21.333zM5.333 3.556h21.333c0.982 0 1.778 0.796 1.778 1.778v21.333c0 0.982-0.796 1.778-1.778 1.778h-21.333c-0.982 0-1.778-0.796-1.778-1.778v-21.333c0-0.982 0.796-1.778 1.778-1.778z"></path><path d="M5.333 8.889h21.333v1.778h-21.333zM19.743 19.462l-6.012 3.006c-0.439 0.22-0.973 0.042-1.193-0.398-0.059-0.116-0.094-0.253-0.094-0.398 0 0 0 0 0-0v0-6.012c0-0.491 0.398-0.889 0.889-0.889 0.138 0 0.274 0.032 0.398 0.094l6.012 3.006c0.439 0.22 0.617 0.753 0.398 1.193-0.088 0.173-0.225 0.31-0.392 0.395l-0.005 0.002zM17.778 18.667l-3.556-1.778v3.556l3.556-1.778zM8.889 5.333h1.778l1.789 3.556h-1.778zM14.222 5.333h1.778l1.789 3.556h-1.778zM19.556 5.333h1.778l1.789 3.556h-1.778z"></path>
  </svg>