<svg xmlns="http://www.w3.org/2000/svg" viewBox="0 0 32 32" width="24" height="24" style="border-color: rgba(0,0,0,0);border-width: bpx;border-style: undefined" filter="none">
    <path d="M16 21.333c4.909 0 8.889-3.98 8.889-8.889s-3.98-8.889-8.889-8.889-8.889 3.98-8.889 8.889c0 4.909 3.98 8.889 8.889 8.889zM16 23.111c-5.891 0-10.667-4.776-10.667-10.667s4.776-10.667 10.667-10.667c5.891 0 10.667 4.776 10.667 10.667s-4.776 10.667-10.667 10.667z"></path><path d="M16 14.667c1.227 0 2.222-0.995 2.222-2.222s-0.995-2.222-2.222-2.222c-1.227 0-2.222 0.995-2.222 2.222s0.995 2.222 2.222 2.222zM16 16.444c-2.209 0-4-1.791-4-4s1.791-4 4-4 4 1.791 4 4c0 2.209-1.791 4-4 4zM12.444 27.538l3.556-1.506 3.556 1.506v-5.063c-1.168 0.43-2.351 0.649-3.543 0.649-1.199 0-2.389-0.221-3.568-0.655v5.069zM10.667 19.566c1.79 1.187 3.571 1.78 5.345 1.78s3.548-0.593 5.321-1.78v9.314c0 0.491-0.398 0.889-0.889 0.889-0.119 0-0.237-0.024-0.347-0.070l-4.098-1.736-4.098 1.736c-0.452 0.192-0.974-0.020-1.165-0.472-0.044-0.102-0.070-0.221-0.070-0.347v0-9.314z"></path>
  </svg>